<svg width="32" height="32" viewBox="0 0 32 32" fill="none" xmlns="http://www.w3.org/2000/svg">
<path d="M30.4111 9.17571L27.7265 7.34783V6.65876C27.7265 4.98582 26.3655 3.62476 24.6925 3.62476H22.2584L17.7165 0.532501C16.6738 -0.1775 15.3262 -0.1775 14.2834 0.532501L9.74551 3.62213L9.74732 3.62482H7.30738C5.63444 3.62482 4.27337 4.98589 4.27337 6.65883V7.34783L1.58881 9.17564C0.861616 9.67071 0.42749 10.4916 0.42749 11.3713V30.0086C0.42749 30.6576 0.689178 31.9999 2.41881 31.9999H29.5811C30.6792 31.9999 31.5724 31.1066 31.5724 30.0086V11.3713C31.5725 10.4916 31.1382 9.67077 30.4111 9.17571ZM14.811 1.30725C15.5333 0.815627 16.4668 0.815627 17.189 1.30725L20.5929 3.62482H11.4071L14.811 1.30725ZM5.21081 6.65889C5.21081 5.50276 6.15131 4.56226 7.30738 4.56226H24.6925C25.8485 4.56226 26.789 5.50276 26.789 6.65883V10.2057C26.789 10.4646 26.9989 10.6744 27.2577 10.6744C27.5165 10.6744 27.7264 10.4646 27.7264 10.2057V8.48195C27.7264 8.48195 30.0419 10.0695 30.1122 10.1375L18.4952 17.1685C16.9562 18.0979 15.0438 18.098 13.5071 17.17L5.21081 12.091V6.65889ZM4.27344 8.48183V11.517L1.93999 10.0886C1.99543 10.0393 4.27344 8.48183 4.27344 8.48183ZM2.36293 31.0598L4.02512 29.1512C4.19512 28.9559 4.17475 28.6599 3.9795 28.4899C3.78431 28.3199 3.48825 28.3404 3.31818 28.5355L1.53574 30.5821C1.42805 30.4169 1.3648 30.2201 1.3648 30.0086V11.3713C1.3648 11.2026 1.39005 11.0374 1.43705 10.8798L12.6933 17.7708L4.72169 26.9241C4.55169 27.1193 4.57206 27.4153 4.76731 27.5854C4.85612 27.6627 5.16237 27.7894 5.42863 27.5397L13.5255 18.2427C14.3093 18.6163 15.1545 18.8034 15.9999 18.8034C16.8559 18.8034 17.7119 18.6111 18.5042 18.228L29.6514 31.0591C29.628 31.0606 2.38156 31.0608 2.36293 31.0598ZM30.6351 30.0086C30.6351 30.216 30.574 30.4089 30.4702 30.5722L19.3355 17.7557L30.5822 10.9487C30.6169 11.0853 30.6351 11.227 30.6351 11.3713V30.0086H30.6351Z" fill="#333333"/>
</svg>
