<svg width="119" height="34" viewBox="0 0 119 34" fill="none" xmlns="http://www.w3.org/2000/svg">
<path d="M60.4648 9.96862H49.8998V14.5186H58.2039V18.6953H49.9021V23.5388H60.4671V27.9315H44.6219V5.74261H60.4648V9.96862Z" fill="#99624D"/>
<path d="M79.4278 9.96862H68.8628V14.5186H77.1622V18.6953H68.8651V23.5388H79.4302V27.9315H63.585V5.74261H79.4278V9.96862Z" fill="#99624D"/>
<path d="M98.3908 9.96862H87.8258V14.5186H96.1323V18.6953H87.8282V23.5388H98.3932V27.9315H82.548V5.74261H98.3908V9.96862Z" fill="#99624D"/>
<path d="M106.791 19.6837V27.9315H101.511V5.74261H110.254C112.204 5.74261 113.697 5.95078 114.731 6.36712C115.842 6.84476 116.8 7.61784 117.502 8.60221C118.314 9.67437 118.72 10.9907 118.72 12.5512C118.719 13.6505 118.498 14.7385 118.07 15.7512C117.69 16.7196 117.056 17.5674 116.234 18.2046C115.552 18.745 114.771 19.1477 113.936 19.3903C113.194 19.5859 112.031 19.6837 110.449 19.6837H106.791ZM106.613 15.6549H109.994C111.283 15.6549 112.188 15.3568 112.708 14.7604C113.214 14.1994 113.492 13.469 113.487 12.7132C113.507 12.3121 113.439 11.9115 113.288 11.5393C113.137 11.1671 112.907 10.8322 112.614 10.5579C112.035 10.0273 111.154 9.76202 109.972 9.76202H106.613V15.6549Z" fill="#99624D"/>
<path d="M40.1377 18.4442C39.3676 17.4143 38.2141 16.7256 36.677 16.3781C39.3379 15.5548 40.6683 13.9114 40.6683 11.4478C40.7019 10.3486 40.3827 9.26744 39.7573 8.36279C39.1639 7.52975 38.3702 6.85958 37.4495 6.41414C36.5104 5.96023 35.1181 5.73328 33.2728 5.73328H28.434V9.64938H31.688C32.7711 9.64938 33.4966 9.70103 33.8644 9.80433C34.278 9.93982 34.6354 10.208 34.881 10.5674C35.1961 10.9854 35.3615 11.4973 35.3506 12.0206C35.3302 12.6119 35.1349 13.1838 34.7894 13.6641C34.4154 14.2323 33.5083 14.5163 32.0684 14.5163H28.434V18.4653H32.3454C33.5975 18.4653 34.4944 18.7251 35.036 19.2448C35.2953 19.4949 35.501 19.7952 35.6404 20.1274C35.7799 20.4596 35.8502 20.8167 35.8472 21.177C35.8441 21.5373 35.7677 21.8932 35.6225 22.2229C35.4774 22.5527 35.2666 22.8495 35.0031 23.0951C34.4412 23.5647 33.4794 23.7995 32.1177 23.7995H28.434V27.9316H33.2798C36.1065 27.9316 38.1483 27.3274 39.4052 26.1191C40.0022 25.5738 40.4779 24.9091 40.8015 24.1682C41.1251 23.4272 41.2892 22.6265 41.2834 21.8179C41.286 20.5974 40.883 19.4107 40.1377 18.4442Z" fill="#99624D"/>
<path d="M18.6109 12.4878C18.4343 12.4736 18.2679 12.3992 18.1397 12.2769C18.0114 12.1547 17.9291 11.9921 17.9065 11.8163C17.7265 10.2699 16.9557 9.00135 15.594 8.01058C15.0416 7.58156 14.4086 7.26799 13.7327 7.08851C13.0567 6.90903 12.3515 6.8673 11.6591 6.96582C10.9973 7.0491 10.3602 7.26961 9.78859 7.61324C9.21694 7.95688 8.72332 8.41607 8.33933 8.96143C7.8055 9.69033 7.47639 10.5488 7.38613 11.4477C7.28286 12.3484 7.43329 13.2599 7.82047 14.0796C8.22817 14.934 8.84817 15.6696 9.62122 16.2161C10.2283 16.6791 10.9262 17.0087 11.6694 17.1835C12.4126 17.3583 13.1843 17.3742 13.9341 17.2303C14.1116 17.2007 14.2939 17.2339 14.4495 17.3244C14.6051 17.4148 14.7243 17.5568 14.7863 17.7257C14.8261 17.8302 14.8428 17.942 14.8356 18.0536C14.8283 18.1651 14.797 18.2738 14.744 18.3722C14.691 18.4707 14.6175 18.5565 14.5284 18.624C14.4393 18.6915 14.3367 18.7391 14.2276 18.7634C13.4625 18.9208 12.6743 18.9304 11.9056 18.7916C10.7377 18.5715 9.63676 18.0837 8.68915 17.3665C7.09266 16.2036 6.13789 14.7307 5.82486 12.948C5.66106 12.1054 5.67611 11.2378 5.86903 10.4014C6.06195 9.565 6.42844 8.77847 6.94475 8.09276C7.63756 7.13011 8.57889 6.37379 9.66817 5.90462C10.7541 5.42684 11.9509 5.25864 13.1265 5.41863C14.3619 5.59077 15.5329 6.07566 16.5284 6.8273C17.1875 7.30434 17.7661 7.88373 18.2423 8.54353C18.6819 9.13402 19.0207 9.79329 19.2448 10.4945C19.361 10.8809 19.4312 11.2797 19.4537 11.6825C19.4581 11.7927 19.439 11.9025 19.3977 12.0048C19.3564 12.107 19.2938 12.1992 19.2141 12.2754C19.1344 12.3516 19.0393 12.4099 18.9353 12.4465C18.8313 12.4831 18.7207 12.4972 18.6109 12.4878Z" fill="#99624D" stroke="white" stroke-width="0.469556" stroke-miterlimit="10"/>
<path d="M0 12.5395C0 19.6627 10.0509 31.4321 12.1615 33.8245C12.2087 33.8795 12.2672 33.9237 12.3331 33.954C12.3989 33.9843 12.4705 34 12.543 34C12.6155 34 12.6871 33.9843 12.753 33.954C12.8189 33.9237 12.8774 33.8795 12.9245 33.8245C15.0164 31.3687 25.0931 19.1861 25.0931 12.5465C25.0931 9.219 23.7712 6.02773 21.4183 3.6748C19.0654 1.32187 15.8741 0 12.5465 0C9.219 0 6.02773 1.32187 3.6748 3.6748C1.32187 6.02773 0 9.219 0 12.5465V12.5395ZM3.09908 12.0253C3.09908 10.1568 3.65316 8.33023 4.69126 6.77661C5.72936 5.22298 7.20486 4.01207 8.93116 3.29701C10.6575 2.58195 12.557 2.39486 14.3897 2.7594C16.2223 3.12393 17.9057 4.02371 19.2269 5.34497C20.5482 6.66622 21.448 8.3496 21.8125 10.1822C22.177 12.0149 21.9899 13.9144 21.2749 15.6407C20.5598 17.367 19.3489 18.8425 17.7953 19.8806C16.2417 20.9187 14.4151 21.4728 12.5465 21.4728C10.0409 21.4728 7.63792 20.4775 5.86617 18.7057C4.09443 16.934 3.09908 14.531 3.09908 12.0253Z" fill="#99624D"/>
</svg>
