<svg width="32" height="32" viewBox="0 0 32 32" fill="none" xmlns="http://www.w3.org/2000/svg">
<path d="M23.856 28.6001H9.41675C9.30072 28.6001 9.18944 28.5541 9.10739 28.472C9.02534 28.39 8.97925 28.2787 8.97925 28.1626V3.83765C8.97925 3.72161 9.02534 3.61033 9.10739 3.52829C9.18944 3.44624 9.30072 3.40015 9.41675 3.40015H23.856C23.972 3.40015 24.0833 3.44624 24.1654 3.52829C24.2474 3.61033 24.2935 3.72161 24.2935 3.83765V13.5001C24.2935 13.6162 24.2474 13.7275 24.1654 13.8095C24.0833 13.8916 23.972 13.9376 23.856 13.9376C23.74 13.9376 23.6287 13.8916 23.5466 13.8095C23.4646 13.7275 23.4185 13.6162 23.4185 13.5001V4.27515H9.85425V27.7251H23.4185V18.5001C23.4185 18.3841 23.4646 18.2728 23.5466 18.1908C23.6287 18.1087 23.74 18.0626 23.856 18.0626C23.972 18.0626 24.0833 18.1087 24.1654 18.1908C24.2474 18.2728 24.2935 18.3841 24.2935 18.5001V28.1626C24.2935 28.2787 24.2474 28.39 24.1654 28.472C24.0833 28.5541 23.972 28.6001 23.856 28.6001Z" fill="#333333"/>
<path d="M11.7208 30.375L1.76904 25.952V6.048L11.7208 1.625V30.375Z" fill="#FFC6CB"/>
<path d="M3.26904 24.2707C3.15301 24.2707 3.04173 24.2247 2.95968 24.1426C2.87764 24.0606 2.83154 23.9493 2.83154 23.8332V16.6667C2.83154 16.5507 2.87764 16.4394 2.95968 16.3574C3.04173 16.2753 3.15301 16.2292 3.26904 16.2292C3.38508 16.2292 3.49635 16.2753 3.5784 16.3574C3.66045 16.4394 3.70654 16.5507 3.70654 16.6667V23.8332C3.70654 23.9493 3.66045 24.0606 3.5784 24.1426C3.49635 24.2247 3.38508 24.2707 3.26904 24.2707Z" fill="#D53F4C"/>
<path d="M30.5405 15.691L27.413 12.5632C27.3309 12.4812 27.2196 12.4351 27.1036 12.4351C26.9876 12.4351 26.8763 12.4812 26.7942 12.5632C26.7122 12.6453 26.6661 12.7565 26.6661 12.8726C26.6661 12.9886 26.7122 13.0999 26.7942 13.182L29.175 15.5627H15.856C15.7399 15.5627 15.6286 15.6088 15.5466 15.6908C15.4646 15.7729 15.4185 15.8842 15.4185 16.0002C15.4185 16.1162 15.4646 16.2275 15.5466 16.3096C15.6286 16.3916 15.7399 16.4377 15.856 16.4377H29.175L26.7942 18.8185C26.7122 18.9005 26.6661 19.0118 26.6661 19.1278C26.6661 19.2439 26.7122 19.3552 26.7942 19.4372C26.8763 19.5193 26.9876 19.5654 27.1036 19.5654C27.2196 19.5654 27.3309 19.5193 27.413 19.4372L30.5405 16.3095C30.5811 16.2689 30.6133 16.2206 30.6353 16.1676C30.6573 16.1145 30.6686 16.0576 30.6686 16.0002C30.6686 15.9428 30.6573 15.8859 30.6353 15.8328C30.6133 15.7798 30.5811 15.7316 30.5405 15.691Z" fill="#333333"/>
</svg>
