<svg width="32" height="28" viewBox="0 0 32 28" fill="none" xmlns="http://www.w3.org/2000/svg">
<path d="M31.5102 6.58905C31.137 6.1092 30.6571 5.84259 30.0706 5.7893L28.791 5.63422V4.13644V3.07015C28.791 1.8972 27.8313 0.9375 26.6584 0.9375H2.13265C0.9597 0.937438 0 1.89714 0 3.07015V4.1365V8.40185V20.1315C0 21.0945 0.64711 21.9133 1.52784 22.1757C1.50097 23.2543 2.31703 24.1906 3.41231 24.2902L28.0446 27.0626C28.0979 27.0626 28.2046 27.0626 28.2579 27.0626C29.3242 27.0626 30.2839 26.2629 30.3905 25.2499L31.99 8.13525C32.0433 7.60204 31.8834 7.01554 31.5102 6.58905ZM1.06635 4.66965H27.7247V6.0559V7.86865H1.06635V4.66965ZM2.13265 2.00379H26.6583C27.2448 2.00379 27.7247 2.48364 27.7247 3.07015V3.60329H1.06635V3.07015C1.06635 2.48364 1.5462 2.00379 2.13265 2.00379ZM1.06635 20.1314V8.93494H27.7247V20.1314C27.7247 20.7179 27.2449 21.1978 26.6584 21.1978H2.186H2.13271C1.5462 21.1978 1.06635 20.7179 1.06635 20.1314ZM30.9237 7.92194L29.3242 25.0366C29.2709 25.6231 28.7376 26.0496 28.1512 25.9963L3.5722 23.2238C3.03905 23.1706 2.66579 22.744 2.6125 22.2641H26.6583C27.8312 22.2641 28.7909 21.3044 28.7909 20.1315V8.40179V6.64234L30.0172 6.749C30.2839 6.749 30.5504 6.90895 30.7103 7.12219C30.8704 7.33544 30.977 7.65534 30.9237 7.92194Z" fill="#333333"/>
</svg>
