<svg width="32" height="30" viewBox="0 0 32 30" fill="none" xmlns="http://www.w3.org/2000/svg">
<path d="M31.9925 9.75673C31.9962 9.73486 31.9984 9.71352 31.9994 9.69111C32.0005 9.66497 32 9.6399 31.9978 9.61376C31.9957 9.59136 31.9925 9.57002 31.9872 9.54815C31.9813 9.52254 31.9733 9.498 31.9637 9.47346C31.9589 9.46066 31.9578 9.44732 31.9519 9.43505C31.9477 9.42599 31.9402 9.41905 31.9354 9.40998C31.9306 9.40091 31.9285 9.39131 31.9231 9.38224L26.5886 0.846916C26.564 0.807974 26.5352 0.772766 26.5027 0.741825C26.5021 0.741292 26.5016 0.741292 26.5011 0.740758C26.4552 0.697548 26.4008 0.666608 26.3426 0.642069C26.3352 0.638868 26.3304 0.632466 26.3224 0.629266C26.3165 0.627132 26.3101 0.628199 26.3042 0.626598C26.2503 0.608461 26.1949 0.596191 26.1367 0.596191H5.86532C5.80771 0.596191 5.75276 0.608461 5.69995 0.626065C5.69408 0.627665 5.68821 0.626598 5.68288 0.628732C5.67488 0.6314 5.67008 0.637801 5.66261 0.641002C5.60713 0.66394 5.55485 0.693814 5.5095 0.734357C5.50684 0.737024 5.5031 0.738625 5.50044 0.740758C5.46736 0.771699 5.43802 0.807441 5.41348 0.846383L0.0789037 9.38171C0.0735691 9.39024 0.0714353 9.40038 0.0666342 9.40945C0.0618331 9.41852 0.0543647 9.42545 0.050097 9.43452C0.044229 9.44679 0.043162 9.46013 0.0378275 9.47293C0.0282252 9.49747 0.0202234 9.52201 0.0143553 9.54761C0.0095542 9.56948 0.00582 9.59136 0.00368616 9.61376C-4.80409e-05 9.6399 -0.000581499 9.66551 0.000485417 9.69111C0.00155233 9.71352 0.00368616 9.73486 0.00742037 9.75673C0.011688 9.78233 0.018623 9.80741 0.0271583 9.83248C0.0340933 9.85328 0.0415617 9.87356 0.0511639 9.89383C0.055965 9.90343 0.0575654 9.9141 0.0629 9.9237C0.0714353 9.93917 0.0842383 9.95091 0.0938405 9.96531C0.101309 9.97651 0.105577 9.98878 0.114645 9.99945L15.5791 29.1965C15.5801 29.1981 15.5812 29.1991 15.5823 29.2002L15.5849 29.2039C15.5865 29.2061 15.5892 29.2066 15.5908 29.2087C15.6345 29.2615 15.6889 29.3016 15.7482 29.3336C15.7642 29.3421 15.7791 29.3496 15.7956 29.3565C15.8602 29.3837 15.9285 29.4029 16 29.4029C16.0608 29.4029 16.1221 29.3922 16.1829 29.3704C16.192 29.3672 16.1979 29.3597 16.2069 29.356C16.2341 29.3448 16.2555 29.3266 16.28 29.3112C16.3206 29.2856 16.3584 29.2589 16.3899 29.2242C16.3974 29.2162 16.4086 29.2125 16.4155 29.2039L31.8858 9.99945C31.8943 9.98878 31.8986 9.97598 31.9066 9.96531C31.9167 9.95091 31.929 9.93917 31.9375 9.9237C31.9429 9.9141 31.9445 9.90343 31.9493 9.89383C31.9589 9.87356 31.9663 9.85382 31.9733 9.83248C31.9807 9.80741 31.9882 9.78287 31.9925 9.75673ZM17.1213 1.66364H25.368L22.7754 8.6226L17.1213 1.66364ZM21.8141 9.13205H10.1863L16 1.97678L21.8141 9.13205ZM9.18716 8.66901L6.6271 1.66364H14.8792L9.18716 8.66901ZM22.1881 10.199L15.9066 27.0594L9.74569 10.199H22.1881ZM26.2573 2.33206L30.5073 9.13258H23.7239L26.2573 2.33206ZM5.73782 2.339L8.22 9.13205H1.49257L5.73782 2.339ZM8.60996 10.199L14.3921 26.0235L1.6446 10.199H8.60996ZM17.2787 26.4321L23.3265 10.199H30.3553L17.2787 26.4321Z" fill="#333333"/>
</svg>
