<svg width="24" height="30" viewBox="0 0 24 30" fill="none" xmlns="http://www.w3.org/2000/svg">
<path d="M12.077 0.777832C8.51547 0.777832 5.61444 3.67887 5.61444 7.24039C5.61444 10.8019 8.51547 13.7029 12.077 13.7029C15.6385 13.7029 18.5395 10.8019 18.5395 7.24039C18.5395 3.67887 15.6385 0.777832 12.077 0.777832ZM12.077 2.07034C14.94 2.07034 17.247 4.37739 17.247 7.24039C17.247 10.1034 14.94 12.4104 12.077 12.4104C9.214 12.4104 6.90695 10.1034 6.90695 7.24039C6.90695 4.37739 9.214 2.07034 12.077 2.07034ZM12.3395 3.03973C12.0011 3.05552 11.7076 3.37786 11.7234 3.71628C11.7393 4.0547 12.0617 4.34817 12.4001 4.33224C13.6058 4.33224 14.9851 5.63422 14.9851 6.91726C14.9803 7.25868 15.2899 7.57272 15.6314 7.57272C15.9729 7.57272 16.2825 7.25868 16.2777 6.91726C16.2777 4.81238 14.4257 3.03973 12.4001 3.03973C12.3799 3.03879 12.3597 3.03879 12.3395 3.03973ZM10.4614 15.6417C7.91233 15.6417 5.43252 16.1399 3.5444 17.5603C1.65628 18.9806 0.444392 21.3359 0.444392 24.6893V28.5668C0.439564 28.9082 0.749189 29.2223 1.09065 29.2223C1.43211 29.2223 1.74173 28.9082 1.7369 28.5668V24.6893C1.7369 21.6349 2.7556 19.7787 4.32192 18.6003C5.88825 17.4221 8.08677 16.9342 10.4614 16.9342C11.5384 16.9342 12.6155 16.9342 13.6926 16.9342C16.0672 16.9342 18.2657 17.4221 19.8321 18.6003C21.3984 19.7787 22.4171 21.6349 22.4171 24.6893V28.5668C22.4123 28.9082 22.7219 29.2223 23.0633 29.2223C23.4048 29.2223 23.7144 28.9082 23.7096 28.5668V24.6893C23.7096 21.3359 22.4977 18.9806 20.6096 17.5603C18.7215 16.1399 16.2416 15.6417 13.6926 15.6417C12.6155 15.6417 11.5384 15.6417 10.4614 15.6417Z" fill="#4F4F4F"/>
</svg>
