<svg width="212" height="201" viewBox="0 0 212 201" fill="none" xmlns="http://www.w3.org/2000/svg">
<path d="M130.462 143.085C81.1843 143.085 46.3654 193.213 23.3815 157.1C-34.587 66.0194 189.875 -23.924 201.581 91.2892C206.68 141.475 179.741 143.085 130.462 143.085Z" fill="url(#paint0_linear)" fill-opacity="0.2"/>
<path d="M101.146 194.985L176.154 145.02C177.665 144.014 178.573 142.318 178.573 140.502V136.397L124.445 125.661L37.2056 174.396V177.955C37.2056 180.288 38.6964 182.36 40.9086 183.102L83.3902 197.344C89.3554 199.343 95.9102 198.473 101.146 194.985Z" fill="#136663"/>
<path d="M117.085 125.018L39.2638 171.096C36.2797 172.863 36.7298 177.314 40.0072 178.447L83.4107 193.461C89.4201 195.539 96.0557 194.691 101.348 191.166L176.904 140.853C179.85 138.891 179.063 134.365 175.628 133.512L132.359 122.776C127.171 121.489 121.684 122.294 117.085 125.018Z" fill="#32BEA6"/>
<path d="M117.687 127.14L41.2429 172.371C39.5776 173.357 39.838 175.842 41.6714 176.461L83.4696 190.567C89.4474 192.585 96.0227 191.717 101.272 188.217L174.363 139.484C175.994 138.396 175.563 135.889 173.662 135.409L156.728 131.13L153.117 132.772C152.176 133.2 151.117 133.293 150.116 133.035L140.554 130.572C139.824 130.384 139.387 129.637 139.581 128.909L140.154 126.755L133.13 124.946C127.895 123.598 122.339 124.387 117.687 127.14Z" fill="#BBECF1"/>
<path d="M111.103 30.4137L144.272 88.201C145.561 90.4451 148.465 91.1536 150.642 89.7547L178.847 71.6268C180.913 70.2994 181.542 67.5668 180.266 65.4695L146.409 9.8377C145.13 7.73474 142.403 7.04113 140.274 8.27688L112.756 24.2493C110.602 25.4992 109.864 28.2543 111.103 30.4137Z" fill="#32BEA6" fill-opacity="0.2"/>
<path d="M111.285 29.758L144.454 87.5452C145.742 89.7893 148.647 90.4978 150.823 89.0989L179.029 70.971C181.094 69.6436 181.724 66.9111 180.447 64.8137L146.591 9.18194C145.311 7.07897 142.585 6.38537 140.456 7.62112L112.937 23.5936C110.784 24.8434 110.045 27.5985 111.285 29.758Z" fill="#136663"/>
<path d="M131.687 18.601L125.855 22.2069C125.439 22.4642 125.303 23.0057 125.548 23.4293L130.68 32.307C130.935 32.7479 131.504 32.8916 131.937 32.6248L137.973 28.9127C138.397 28.6518 138.531 28.0972 138.272 27.6717L132.936 18.9003C132.675 18.4712 132.114 18.3369 131.687 18.601Z" fill="url(#paint1_linear)"/>
<rect width="29.5833" height="2.52641" rx="1.2632" transform="matrix(-0.505727 -0.862716 0.871765 -0.489884 165.177 72.0579)" fill="#6FCF97" fill-opacity="0.2"/>
<rect width="41.8425" height="2.52641" rx="1.2632" transform="matrix(-0.505727 -0.862716 0.871765 -0.489884 169.927 69.5085)" fill="#6FCF97" fill-opacity="0.2"/>
<path d="M17.4446 103.966L65.1473 79.3761C66.7822 78.5334 68.7645 78.7644 70.1618 79.9605L92.5901 99.1593C94.032 100.394 93.7943 102.689 92.1299 103.601L45.5112 129.159C43.8292 130.081 41.7485 129.842 40.3192 128.562L16.9724 107.661C15.7915 106.604 16.0359 104.692 17.4446 103.966Z" fill="#99624D" fill-opacity="0.5"/>
<path d="M17.7272 103.412L65.425 78.7024C66.8923 77.9423 68.6735 78.1445 69.9331 79.2141L92.3601 98.2588C93.8055 99.4863 93.579 101.78 91.9214 102.701L45.7789 128.332C44.1016 129.264 42.0191 129.036 40.5828 127.764L17.268 107.114C16.0792 106.061 16.3171 104.143 17.7272 103.412Z" fill="#99624D"/>
<path d="M72.0374 87.975L76.9506 92.2413C77.188 92.4474 77.1479 92.8268 76.8728 92.9788L69.0883 97.279C68.9225 97.3707 68.7171 97.3492 68.5737 97.2252L63.4885 92.8283C63.2472 92.6197 63.2919 92.2335 63.5744 92.0854L71.5308 87.9159C71.6957 87.8295 71.8968 87.8529 72.0374 87.975Z" fill="url(#paint2_linear)"/>
<rect width="22.7829" height="2.13665" rx="1.06832" transform="matrix(-0.87163 0.490124 0.762637 0.646854 58.0073 105.733)" fill="#F2F2F2"/>
<rect width="32.2241" height="2.13665" rx="1.06832" transform="matrix(-0.87163 0.490124 0.762637 0.646854 68.7241 104.66)" fill="#F2F2F2"/>
<defs>
<linearGradient id="paint0_linear" x1="98.8951" y1="80.7667" x2="115.888" y2="166.512" gradientUnits="userSpaceOnUse">
<stop stop-color="#57B894"/>
<stop offset="1" stop-color="#B27C66"/>
</linearGradient>
<linearGradient id="paint1_linear" x1="124.861" y1="24.0777" x2="138.856" y2="26.5314" gradientUnits="userSpaceOnUse">
<stop stop-color="white"/>
<stop offset="1" stop-color="white" stop-opacity="0"/>
</linearGradient>
<linearGradient id="paint2_linear" x1="77.2742" y1="93.6084" x2="63.4154" y2="91.1788" gradientUnits="userSpaceOnUse">
<stop stop-color="white"/>
<stop offset="1" stop-color="white" stop-opacity="0"/>
</linearGradient>
</defs>
</svg>
